<svg width="104" height="92" viewBox="0 0 104 92" fill="none" xmlns="http://www.w3.org/2000/svg">
<path d="M104 46.0105C104 39.1669 95.3722 32.6812 82.1443 28.6592C85.1969 15.2667 83.8402 4.61158 77.8622 1.20027C76.4843 0.400091 74.8732 0.0210571 73.1137 0.0210571V4.71687C74.0889 4.71687 74.8732 4.90639 75.5304 5.26436C78.4134 6.90684 79.6641 13.1609 78.689 21.2049C78.4558 23.1843 78.0742 25.2689 77.6078 27.3957C73.4529 26.385 68.9164 25.6059 64.1468 25.1005C61.285 21.2049 58.3172 17.6672 55.3282 14.5718C62.2389 8.19135 68.7256 4.69581 73.1349 4.69581V0C67.3053 0 59.6739 4.12726 51.9576 11.2868C44.2413 4.16938 36.6099 0.0842301 30.7803 0.0842301V4.78004C35.1684 4.78004 41.6763 8.25452 48.587 14.5928C45.6192 17.6883 42.6515 21.2049 39.832 25.1005C35.0412 25.6059 30.5047 26.385 26.3498 27.4168C25.8622 25.3111 25.5018 23.2685 25.2475 21.3101C24.2511 13.2662 25.4806 7.01213 28.3424 5.34859C28.9784 4.96956 29.8051 4.8011 30.7803 4.8011V0.105287C28.9996 0.105287 27.3885 0.484321 25.9894 1.2845C20.0326 4.69581 18.6971 15.3298 21.7709 28.6802C8.58541 32.7233 0 39.1879 0 46.0105C0 52.8542 8.6278 59.3399 21.8557 63.3619C18.8031 76.7544 20.1598 87.4095 26.1378 90.8208C27.5157 91.621 29.1268 92 30.9075 92C36.7371 92 44.3685 87.8727 52.0848 80.7132C59.8011 87.8306 67.4325 91.9158 73.2621 91.9158C75.0428 91.9158 76.6539 91.5367 78.053 90.7365C84.0098 87.3252 85.3453 76.6912 82.2715 63.3408C95.4146 59.3188 104 52.8331 104 46.0105ZM76.3995 31.9652C75.6152 34.6816 74.64 37.4823 73.5377 40.2829C72.6686 38.5983 71.757 36.9137 70.7607 35.2291C69.7856 33.5445 68.7468 31.902 67.7081 30.3017C70.7183 30.7439 73.6225 31.2914 76.3995 31.9652ZM66.6906 54.3914C65.0371 57.2341 63.3412 59.9295 61.5817 62.4353C58.4232 62.7091 55.2222 62.8565 52 62.8565C48.799 62.8565 45.598 62.7091 42.4607 62.4564C40.7012 59.9506 38.9841 57.2763 37.3306 54.4546C35.7195 51.696 34.2568 48.8954 32.9213 46.0737C34.2356 43.252 35.7195 40.4303 37.3094 37.6718C38.9629 34.829 40.6588 32.1337 42.4183 29.6278C45.5768 29.3541 48.7778 29.2067 52 29.2067C55.201 29.2067 58.402 29.3541 61.5393 29.6068C63.2988 32.1126 65.0159 34.7869 66.6694 37.6086C68.2805 40.3671 69.7432 43.1678 71.0787 45.9895C69.7432 48.8112 68.2805 51.6329 66.6906 54.3914ZM73.5377 51.6539C74.6824 54.4756 75.6576 57.2973 76.4631 60.0348C73.6861 60.7086 70.7607 61.2772 67.7293 61.7194C68.768 60.098 69.8068 58.4344 70.7819 56.7288C71.757 55.0442 72.6686 53.3385 73.5377 51.6539ZM52.0424 74.1222C50.0709 72.1007 48.0995 69.8476 46.1492 67.3838C48.0571 67.4681 50.0073 67.5312 51.9788 67.5312C53.9715 67.5312 55.9429 67.4891 57.872 67.3838C55.9641 69.8476 53.9927 72.1007 52.0424 74.1222ZM36.2707 61.7194C33.2605 61.2772 30.3563 60.7297 27.5793 60.0558C28.3636 57.3394 29.3388 54.5388 30.4411 51.7382C31.3102 53.4228 32.2218 55.1073 33.2181 56.7919C34.2144 58.4765 35.232 60.119 36.2707 61.7194ZM51.9364 17.8988C53.9079 19.9203 55.8793 22.1735 57.8296 24.6372C55.9217 24.553 53.9715 24.4898 52 24.4898C50.0073 24.4898 48.0359 24.5319 46.1068 24.6372C48.0147 22.1735 49.9861 19.9203 51.9364 17.8988ZM36.2495 30.3017C35.2108 31.9231 34.172 33.5866 33.1969 35.2923C32.2218 36.9769 31.3102 38.6615 30.4411 40.3461C29.2964 37.5244 28.3212 34.7027 27.5157 31.9652C30.2927 31.3124 33.2181 30.7439 36.2495 30.3017ZM17.0648 56.6656C9.56054 53.4859 4.70607 49.3165 4.70607 46.0105C4.70607 42.7045 9.56054 38.5141 17.0648 35.3555C18.8879 34.5763 20.8806 33.8814 22.9368 33.2287C24.1451 37.3559 25.735 41.6516 27.7065 46.0526C25.7562 50.4326 24.1875 54.7073 23.0004 58.8135C20.9018 58.1607 18.9091 57.4447 17.0648 56.6656ZM28.4696 86.7567C25.5866 85.1142 24.3359 78.8601 25.3111 70.8162C25.5442 68.8368 25.9258 66.7521 26.3922 64.6253C30.5471 65.6361 35.0836 66.4152 39.8532 66.9206C42.715 70.8162 45.6828 74.3539 48.6718 77.4493C41.7611 83.8297 35.2744 87.3252 30.8651 87.3252C29.9111 87.3042 29.1056 87.1147 28.4696 86.7567ZM78.7526 70.7109C79.7489 78.7549 78.5194 85.0089 75.6576 86.6725C75.0216 87.0515 74.1949 87.22 73.2197 87.22C68.8316 87.22 62.3237 83.7455 55.413 77.4072C58.3808 74.3117 61.3486 70.7951 64.168 66.8995C68.9588 66.3941 73.4953 65.615 77.6502 64.5832C78.1378 66.71 78.5194 68.7526 78.7526 70.7109ZM86.914 56.6656C85.0909 57.4447 83.0982 58.1396 81.042 58.7924C79.8337 54.6651 78.2438 50.3694 76.2723 45.9684C78.2226 41.5885 79.7913 37.3138 80.9784 33.2076C83.0771 33.8604 85.0697 34.5763 86.9352 35.3555C94.4395 38.5351 99.2939 42.7045 99.2939 46.0105C99.2727 49.3165 94.4183 53.507 86.914 56.6656Z" fill="#61DAFB"/>
<path d="M52 56C57.5228 56 62 51.5228 62 46C62 40.4772 57.5228 36 52 36C46.4771 36 42 40.4772 42 46C42 51.5228 46.4771 56 52 56Z" fill="#61DAFB"/>
</svg>
