<svg width="300" height="213" viewBox="0 0 300 213" fill="none" xmlns="http://www.w3.org/2000/svg">
<path d="M237.427 106.222C237.427 94.6336 222.924 83.6514 200.689 76.8409C205.82 54.1633 203.54 36.121 193.491 30.3446C191.175 28.9897 188.467 28.3479 185.509 28.3479V36.2993C187.148 36.2993 188.467 36.6202 189.571 37.2264C194.417 40.0076 196.52 50.5976 194.881 64.2185C194.489 67.5702 193.847 71.1002 193.063 74.7015C186.079 72.99 178.453 71.6707 170.436 70.815C165.625 64.2185 160.637 58.2281 155.612 52.9866C167.229 42.1826 178.133 36.2636 185.545 36.2636V28.3122C175.745 28.3122 162.917 35.3009 149.947 47.4242C136.976 35.3722 124.148 28.4548 114.348 28.4548V36.4063C121.725 36.4063 132.664 42.2896 144.281 53.0223C139.292 58.2638 134.303 64.2185 129.564 70.815C121.511 71.6707 113.885 72.99 106.901 74.7372C106.081 71.1715 105.476 67.7128 105.048 64.3968C103.373 50.7759 105.44 40.1859 110.251 37.369C111.32 36.7272 112.709 36.4419 114.348 36.4419V28.4905C111.355 28.4905 108.647 29.1323 106.295 30.4873C96.2822 36.2636 94.0373 54.2703 99.2042 76.8766C77.04 83.7227 62.6084 94.6693 62.6084 106.222C62.6084 117.81 77.1113 128.793 99.3467 135.603C94.2155 158.281 96.496 176.323 106.545 182.099C108.861 183.454 111.569 184.096 114.562 184.096C124.362 184.096 137.19 177.107 150.16 164.984C163.131 177.036 175.959 183.954 185.758 183.954C188.752 183.954 191.46 183.312 193.812 181.957C203.825 176.18 206.07 158.174 200.903 135.567C222.996 128.757 237.427 117.775 237.427 106.222ZM191.032 82.439C189.714 87.0387 188.075 91.7811 186.222 96.5234C184.761 93.6709 183.228 90.8183 181.554 87.9658C179.914 85.1133 178.168 82.3321 176.422 79.6221C181.482 80.3709 186.364 81.298 191.032 82.439ZM174.712 120.413C171.933 125.227 169.082 129.791 166.124 134.034C160.815 134.498 155.434 134.747 150.018 134.747C144.637 134.747 139.256 134.498 133.983 134.07C131.025 129.827 128.139 125.298 125.359 120.52C122.651 115.849 120.192 111.107 117.947 106.329C120.157 101.551 122.651 96.773 125.324 92.102C128.103 87.2883 130.954 82.7243 133.911 78.4811C139.221 78.0176 144.601 77.768 150.018 77.768C155.398 77.768 160.779 78.0176 166.053 78.4455C169.011 82.6886 171.897 87.217 174.676 91.995C177.384 96.666 179.843 101.408 182.088 106.186C179.843 110.964 177.384 115.742 174.712 120.413ZM186.222 115.778C188.146 120.556 189.785 125.334 191.139 129.969C186.471 131.11 181.554 132.073 176.458 132.822C178.204 130.076 179.95 127.259 181.589 124.371C183.228 121.519 184.761 118.631 186.222 115.778ZM150.089 153.824C146.775 150.401 143.461 146.585 140.183 142.414C143.39 142.556 146.668 142.663 149.982 142.663C153.332 142.663 156.646 142.592 159.888 142.414C156.681 146.585 153.367 150.401 150.089 153.824ZM123.578 132.822C118.518 132.073 113.636 131.146 108.968 130.005C110.286 125.405 111.925 120.663 113.778 115.921C115.239 118.773 116.772 121.626 118.446 124.478C120.121 127.331 121.832 130.112 123.578 132.822ZM149.911 58.6204C153.225 62.0434 156.539 65.8587 159.817 70.0305C156.61 69.8879 153.332 69.7809 150.018 69.7809C146.668 69.7809 143.354 69.8522 140.112 70.0305C143.319 65.8587 146.633 62.0434 149.911 58.6204ZM123.542 79.6221C121.796 82.3677 120.05 85.1846 118.411 88.0728C116.772 90.9253 115.239 93.7779 113.778 96.6304C111.854 91.8524 110.215 87.0744 108.861 82.439C113.529 81.3337 118.446 80.3709 123.542 79.6221ZM91.2935 124.264C78.6792 118.88 70.5191 111.82 70.5191 106.222C70.5191 100.624 78.6792 93.5282 91.2935 88.1797C94.358 86.8605 97.7076 85.6838 101.164 84.5784C103.195 91.5671 105.868 98.8411 109.182 106.293C105.903 113.71 103.266 120.948 101.271 127.901C97.7432 126.796 94.3936 125.584 91.2935 124.264ZM110.464 175.218C105.618 172.436 103.516 161.846 105.155 148.226C105.547 144.874 106.188 141.344 106.972 137.743C113.957 139.454 121.582 140.773 129.6 141.629C134.41 148.226 139.399 154.216 144.423 159.457C132.807 170.261 121.903 176.18 114.491 176.18C112.888 176.145 111.533 175.824 110.464 175.218ZM194.988 148.047C196.662 161.668 194.596 172.258 189.785 175.075C188.716 175.717 187.326 176.002 185.687 176.002C178.311 176.002 167.371 170.119 155.755 159.386C160.744 154.145 165.732 148.19 170.472 141.593C178.525 140.738 186.15 139.418 193.135 137.671C193.954 141.273 194.596 144.731 194.988 148.047ZM208.706 124.264C205.642 125.584 202.292 126.76 198.836 127.866C196.805 120.877 194.132 113.603 190.818 106.151C194.097 98.7341 196.734 91.4958 198.729 84.5428C202.257 85.6481 205.606 86.8605 208.742 88.1797C221.356 93.5639 229.517 100.624 229.517 106.222C229.481 111.82 221.321 118.916 208.706 124.264Z" fill="#61DAFB"/>
<path d="M149.982 122.517C158.976 122.517 166.267 115.222 166.267 106.222C166.267 97.2225 158.976 89.9269 149.982 89.9269C140.988 89.9269 133.698 97.2225 133.698 106.222C133.698 115.222 140.988 122.517 149.982 122.517Z" fill="#61DAFB"/>
</svg>
